<svg width="800" height="800" viewBox="-100 -100 1600 1600" xmlns="http://www.w3.org/2000/svg">

	<!-- OBJECT (0,0) -->
	<g transform="translate(0, 0)">

		<rect x="20" y="20" width="200" height="200" fill="none" stroke="black" stroke-width="2" />
		<rect x="70" y="70" width="200" height="200" fill="none" stroke="black" stroke-width="2" />
		<line x1="20" y1="20" x2="70" y2="70" stroke="black" stroke-width="2" />
		<line x1="270" y1="70" x2="220" y2="20" stroke="black" stroke-width="2" />
		<line x1="20" y1="220" x2="70" y2="270" stroke="black" stroke-width="2" />
		<line x1="220" y1="220" x2="270" y2="270" stroke="black" stroke-width="2" />

		<g transform="translate(20 20)">
			<rect x="-10" y="-10" width="20" height="20" fill="none" stroke="red" stroke-width="20" />
			<animateTransform id="A1" attributeName="transform" type="translate" from="20 20" to="220 20" dur="0.5s" begin="0s;E1.end" fill="remove" />
			<animateTransform id="B1" attributeName="transform" type="translate" from="220 20" to="220 220" dur="0.5s" begin="A1.end" fill="remove" />
			<animateTransform id="C1" attributeName="transform" type="translate" from="220 220" to="20 220" dur="0.5s" begin="B1.end" fill="remove" />
			<animateTransform id="D1" attributeName="transform" type="translate" from="20 220" to="20 220" dur="0.5s" begin="C1.end" fill="remove" />
			<animateTransform id="E1" attributeName="transform" type="translate" from="20 220" to="20 20" dur="1s" begin="D1.end" fill="remove" />
		</g>

		<g transform="translate(20 20)">
			<rect x="-10" y="-10" width="20" height="20" fill="none" stroke="blue" stroke-width="20" />
			<animateTransform id="A2" attributeName="transform" type="translate" from="20 20" to="220 20" dur="0.5s" begin="0s;E2.end" fill="remove" />
			<animateTransform id="B2" attributeName="transform" type="translate" from="220 20" to="270 70" dur="0.5s" begin="A2.end" fill="remove" />
			<animateTransform id="C2A" attributeName="transform" type="translate" from="270 70" to="270 70" dur="0.5s" begin="B2.end" fill="remove" />
			<animateTransform id="C2B" attributeName="transform" type="translate" from="270 70" to="70 70" dur="0.5s" begin="C2A.end" fill="remove" />
			<animateTransform id="D2" attributeName="transform" type="translate" from="70 70" to="20 20" dur="0.5s" begin="C2B.end" fill="remove" />
			<animateTransform id="E2" attributeName="transform" type="translate" from="20 20" to="20 20" dur="0.5s" begin="D2.end" fill="remove" />
		</g>

		<g transform="translate(20 20)">
			<rect x="-10" y="-10" width="20" height="20" fill="none" stroke="green" stroke-width="20" />
			<animateTransform id="A3" attributeName="transform" type="translate" from="20 20" to="220 20" dur="0.5s" begin="0s;E3.end" fill="remove" />
			<animateTransform id="B3" attributeName="transform" type="translate" from="220 20" to="220 220" dur="0.5s" begin="A3.end" fill="remove" />
			<animateTransform id="C3A" attributeName="transform" type="translate" from="220 220" to="270 270" dur="0.5s" begin="B3.end" fill="remove" />
			<animateTransform id="C3B" attributeName="transform" type="translate" from="270 270" to="70 270" dur="0.5s" begin="C3A.end" fill="remove" />
			<animateTransform id="D3" attributeName="transform" type="translate" from="70 270" to="70 70" dur="0.5s" begin="C3B.end" fill="remove" />
			<animateTransform id="E3" attributeName="transform" type="translate" from="70 70" to="20 20" dur="0.5s" begin="D3.end" fill="remove" />
		</g>

		<g transform="translate(20 20)">
			<rect x="-10" y="-10" width="20" height="20" fill="none" stroke="magenta" stroke-width="20" />
			<animateTransform id="A4" attributeName="transform" type="translate" from="20 20" to="800 20" dur="3s" begin="0s;B4.end" fill="remove" />
			<animateTransform id="B4" attributeName="transform" type="translate" from="800 20" to="20 20" dur="3s" begin="A4.end" fill="remove" />
		</g>

		<g transform="translate(20 20)">
			<rect x="-10" y="-10" width="20" height="20" fill="none" stroke="cyan" stroke-width="20" />
			<animateTransform id="A5" attributeName="transform" type="translate" from="20 20" to="20 800" dur="3s" begin="0s;B5.end" fill="remove" />
			<animateTransform id="B5" attributeName="transform" type="translate" from="20 800" to="20 20" dur="3s" begin="A5.end" fill="remove" />
		</g>

	</g>

	<!-- OBJECT (200,0) -->
	<g transform="translate(200, 0)">
		<rect x="20" y="20" width="200" height="200" fill="none" stroke="black" stroke-width="2" />
		<rect x="70" y="70" width="200" height="200" fill="none" stroke="black" stroke-width="2" />
		<line x1="20" y1="20" x2="70" y2="70" stroke="black" stroke-width="2" />
		<line x1="270" y1="70" x2="220" y2="20" stroke="black" stroke-width="2" />
		<line x1="20" y1="220" x2="70" y2="270" stroke="black" stroke-width="2" />
		<line x1="220" y1="220" x2="270" y2="270" stroke="black" stroke-width="2" />

	</g>

	<!-- OBJECT (0,200) -->
	<g transform="translate(0, 200)">
		<rect x="20" y="20" width="200" height="200" fill="none" stroke="black" stroke-width="2" />
		<rect x="70" y="70" width="200" height="200" fill="none" stroke="black" stroke-width="2" />
		<line x1="20" y1="20" x2="70" y2="70" stroke="black" stroke-width="2" />
		<line x1="270" y1="70" x2="220" y2="20" stroke="black" stroke-width="2" />
		<line x1="20" y1="220" x2="70" y2="270" stroke="black" stroke-width="2" />
		<line x1="220" y1="220" x2="270" y2="270" stroke="black" stroke-width="2" />

	</g>

	<!-- OBJECT (200,200) -->
	<g transform="translate(200, 200)">
		<rect x="20" y="20" width="200" height="200" fill="none" stroke="black" stroke-width="2" />
		<rect x="70" y="70" width="200" height="200" fill="none" stroke="black" stroke-width="2" />
		<line x1="20" y1="20" x2="70" y2="70" stroke="black" stroke-width="2" />
		<line x1="270" y1="70" x2="220" y2="20" stroke="black" stroke-width="2" />
		<line x1="20" y1="220" x2="70" y2="270" stroke="black" stroke-width="2" />
		<line x1="220" y1="220" x2="270" y2="270" stroke="black" stroke-width="2" />

	</g>

	<!-- OBJECT (0,400) -->
	<g transform="translate(0, 400)">
		<rect x="20" y="20" width="200" height="200" fill="none" stroke="black" stroke-width="2" />
		<rect x="70" y="70" width="200" height="200" fill="none" stroke="black" stroke-width="2" />
		<line x1="20" y1="20" x2="70" y2="70" stroke="black" stroke-width="2" />
		<line x1="270" y1="70" x2="220" y2="20" stroke="black" stroke-width="2" />
		<line x1="20" y1="220" x2="70" y2="270" stroke="black" stroke-width="2" />
		<line x1="220" y1="220" x2="270" y2="270" stroke="black" stroke-width="2" />

	</g>

	<!-- OBJECT (200,400) -->
	<g transform="translate(200, 400)">
		<rect x="20" y="20" width="200" height="200" fill="none" stroke="black" stroke-width="2" />
		<rect x="70" y="70" width="200" height="200" fill="none" stroke="black" stroke-width="2" />
		<line x1="20" y1="20" x2="70" y2="70" stroke="black" stroke-width="2" />
		<line x1="270" y1="70" x2="220" y2="20" stroke="black" stroke-width="2" />
		<line x1="20" y1="220" x2="70" y2="270" stroke="black" stroke-width="2" />
		<line x1="220" y1="220" x2="270" y2="270" stroke="black" stroke-width="2" />

	</g>

	<!-- OBJECT (0,600) -->
	<g transform="translate(0, 600)">
		<rect x="20" y="20" width="200" height="200" fill="none" stroke="black" stroke-width="2" />
		<rect x="70" y="70" width="200" height="200" fill="none" stroke="black" stroke-width="2" />
		<line x1="20" y1="20" x2="70" y2="70" stroke="black" stroke-width="2" />
		<line x1="270" y1="70" x2="220" y2="20" stroke="black" stroke-width="2" />
		<line x1="20" y1="220" x2="70" y2="270" stroke="black" stroke-width="2" />
		<line x1="220" y1="220" x2="270" y2="270" stroke="black" stroke-width="2" />
	</g>

	<!-- OBJECT - (200,600) -->
	<g transform="translate(200, 600)">
		<rect x="20" y="20" width="200" height="200" fill="none" stroke="black" stroke-width="2" />
		<rect x="70" y="70" width="200" height="200" fill="none" stroke="black" stroke-width="2" />
		<line x1="20" y1="20" x2="70" y2="70" stroke="black" stroke-width="2" />
		<line x1="270" y1="70" x2="220" y2="20" stroke="black" stroke-width="2" />
		<line x1="20" y1="220" x2="70" y2="270" stroke="black" stroke-width="2" />
		<line x1="220" y1="220" x2="270" y2="270" stroke="black" stroke-width="2" />
	</g>

	<!-- OBJECT (400,0) -->
	<g transform="translate(400, 0)">
		<rect x="20" y="20" width="200" height="200" fill="none" stroke="black" stroke-width="2" />
		<rect x="70" y="70" width="200" height="200" fill="none" stroke="black" stroke-width="2" />
		<line x1="20" y1="20" x2="70" y2="70" stroke="black" stroke-width="2" />
		<line x1="270" y1="70" x2="220" y2="20" stroke="black" stroke-width="2" />
		<line x1="20" y1="220" x2="70" y2="270" stroke="black" stroke-width="2" />
		<line x1="220" y1="220" x2="270" y2="270" stroke="black" stroke-width="2" />
	</g>

	<!-- OBJECT (400,200) -->
	<g transform="translate(400, 200)">
		<rect x="20" y="20" width="200" height="200" fill="none" stroke="black" stroke-width="2" />
		<rect x="70" y="70" width="200" height="200" fill="none" stroke="black" stroke-width="2" />
		<line x1="20" y1="20" x2="70" y2="70" stroke="black" stroke-width="2" />
		<line x1="270" y1="70" x2="220" y2="20" stroke="black" stroke-width="2" />
		<line x1="20" y1="220" x2="70" y2="270" stroke="black" stroke-width="2" />
		<line x1="220" y1="220" x2="270" y2="270" stroke="black" stroke-width="2" />
	</g>

	<!-- OBJECT (400,400) -->
	<g transform="translate(400, 400)">
		<rect x="20" y="20" width="200" height="200" fill="none" stroke="black" stroke-width="2" />
		<rect x="70" y="70" width="200" height="200" fill="none" stroke="black" stroke-width="2" />
		<line x1="20" y1="20" x2="70" y2="70" stroke="black" stroke-width="2" />
		<line x1="270" y1="70" x2="220" y2="20" stroke="black" stroke-width="2" />
		<line x1="20" y1="220" x2="70" y2="270" stroke="black" stroke-width="2" />
		<line x1="220" y1="220" x2="270" y2="270" stroke="black" stroke-width="2" />
	</g>

	<!-- OBJECT (400,600) -->
	<g transform="translate(400, 600)">
		<rect x="20" y="20" width="200" height="200" fill="none" stroke="black" stroke-width="2" />
		<rect x="70" y="70" width="200" height="200" fill="none" stroke="black" stroke-width="2" />
		<line x1="20" y1="20" x2="70" y2="70" stroke="black" stroke-width="2" />
		<line x1="270" y1="70" x2="220" y2="20" stroke="black" stroke-width="2" />
		<line x1="20" y1="220" x2="70" y2="270" stroke="black" stroke-width="2" />
		<line x1="220" y1="220" x2="270" y2="270" stroke="black" stroke-width="2" />
	</g>

	<!-- OBJECT (600,0) -->
	<g transform="translate(600, 0)">
		<rect x="20" y="20" width="200" height="200" fill="none" stroke="black" stroke-width="2" />
		<rect x="70" y="70" width="200" height="200" fill="none" stroke="black" stroke-width="2" />
		<line x1="20" y1="20" x2="70" y2="70" stroke="black" stroke-width="2" />
		<line x1="270" y1="70" x2="220" y2="20" stroke="black" stroke-width="2" />
		<line x1="20" y1="220" x2="70" y2="270" stroke="black" stroke-width="2" />
		<line x1="220" y1="220" x2="270" y2="270" stroke="black" stroke-width="2" />
	</g>

	<!-- OBJECT (600,200) -->
	<g transform="translate(600, 200)">
		<rect x="20" y="20" width="200" height="200" fill="none" stroke="black" stroke-width="2" />
		<rect x="70" y="70" width="200" height="200" fill="none" stroke="black" stroke-width="2" />
		<line x1="20" y1="20" x2="70" y2="70" stroke="black" stroke-width="2" />
		<line x1="270" y1="70" x2="220" y2="20" stroke="black" stroke-width="2" />
		<line x1="20" y1="220" x2="70" y2="270" stroke="black" stroke-width="2" />
		<line x1="220" y1="220" x2="270" y2="270" stroke="black" stroke-width="2" />
	</g>

	<!-- OBJECT (600,400) -->
	<g transform="translate(600, 400)">
		<rect x="20" y="20" width="200" height="200" fill="none" stroke="black" stroke-width="2" />
		<rect x="70" y="70" width="200" height="200" fill="none" stroke="black" stroke-width="2" />
		<line x1="20" y1="20" x2="70" y2="70" stroke="black" stroke-width="2" />
		<line x1="270" y1="70" x2="220" y2="20" stroke="black" stroke-width="2" />
		<line x1="20" y1="220" x2="70" y2="270" stroke="black" stroke-width="2" />
		<line x1="220" y1="220" x2="270" y2="270" stroke="black" stroke-width="2" />
	</g>

	<!-- OBJECT (600,600) -->
	<g transform="translate(600, 600)">
		<rect x="20" y="20" width="200" height="200" fill="none" stroke="black" stroke-width="2" />
		<rect x="70" y="70" width="200" height="200" fill="none" stroke="black" stroke-width="2" />
		<line x1="20" y1="20" x2="70" y2="70" stroke="black" stroke-width="2" />
		<line x1="270" y1="70" x2="220" y2="20" stroke="black" stroke-width="2" />
		<line x1="20" y1="220" x2="70" y2="270" stroke="black" stroke-width="2" />
		<line x1="220" y1="220" x2="270" y2="270" stroke="black" stroke-width="2" />
	</g>

</svg>
